<svg width="1200" height="420" viewBox="0 0 1200 420" fill="none" xmlns="http://www.w3.org/2000/svg" role="img" aria-labelledby="title desc">
  <title id="title">Bruno Di Santo - GitHub profile banner</title>
  <desc id="desc">Modern profile banner for SUAVE and XEMA.</desc>
  <rect width="1200" height="420" fill="#08090B"/>
  <rect x="44" y="44" width="1112" height="332" rx="8" fill="#101114" stroke="#2B2D33"/>
  <rect x="44" y="44" width="1112" height="48" rx="8" fill="#15171B" stroke="#2B2D33"/>
  <rect x="44" y="84" width="1112" height="1" fill="#2B2D33"/>
  <rect x="75" y="63" width="10" height="10" rx="2" fill="#D4AF37"/>
  <rect x="95" y="63" width="10" height="10" rx="2" fill="#6FA8DC"/>
  <rect x="115" y="63" width="10" height="10" rx="2" fill="#A3E635"/>
  <text x="96" y="148" fill="#F7F7F8" font-family="Inter, Segoe UI, Arial, sans-serif" font-size="58" font-weight="760" letter-spacing="0">Bruno Di Santo</text>
  <text x="96" y="192" fill="#C7CBD1" font-family="Inter, Segoe UI, Arial, sans-serif" font-size="24" font-weight="520" letter-spacing="0">Building SUAVE and XEMA: private software, real operations, guarded automation.</text>
  <g transform="translate(96 234)">
    <rect width="122" height="34" rx="6" fill="#F7F7F8"/>
    <text x="18" y="23" fill="#08090B" font-family="Inter, Segoe UI, Arial, sans-serif" font-size="14" font-weight="760" letter-spacing="0">SUAVE PMS</text>
    <rect x="136" width="162" height="34" rx="6" fill="#101114" stroke="#3A3D45"/>
    <text x="154" y="23" fill="#F7F7F8" font-family="Inter, Segoe UI, Arial, sans-serif" font-size="14" font-weight="700" letter-spacing="0">SUAVE Concierge</text>
    <rect x="312" width="76" height="34" rx="6" fill="#101114" stroke="#3A3D45"/>
    <text x="330" y="23" fill="#F7F7F8" font-family="Inter, Segoe UI, Arial, sans-serif" font-size="14" font-weight="700" letter-spacing="0">XEMA</text>
  </g>
  <g transform="translate(96 312)">
    <rect width="1010" height="1" fill="#2B2D33"/>
    <text x="0" y="38" fill="#8F96A3" font-family="Inter, Segoe UI, Arial, sans-serif" font-size="16" font-weight="560" letter-spacing="0">reservations / operations / payments / local agents / audit trails</text>
  </g>
  <g transform="translate(820 122)">
    <rect width="286" height="154" rx="8" fill="#0C0D10" stroke="#2B2D33"/>
    <text x="24" y="38" fill="#8F96A3" font-family="Inter, Segoe UI, Arial, sans-serif" font-size="13" font-weight="700" letter-spacing="0">CURRENT BUILD</text>
    <rect x="24" y="58" width="238" height="1" fill="#2B2D33"/>
    <text x="24" y="88" fill="#F7F7F8" font-family="Inter, Segoe UI, Arial, sans-serif" font-size="18" font-weight="740" letter-spacing="0">SUAVE</text>
    <text x="124" y="88" fill="#D4AF37" font-family="Inter, Segoe UI, Arial, sans-serif" font-size="13" font-weight="760" letter-spacing="0">OPERATIONS</text>
    <text x="24" y="120" fill="#F7F7F8" font-family="Inter, Segoe UI, Arial, sans-serif" font-size="18" font-weight="740" letter-spacing="0">XEMA</text>
    <text x="124" y="120" fill="#A3E635" font-family="Inter, Segoe UI, Arial, sans-serif" font-size="13" font-weight="760" letter-spacing="0">LOCAL AGENT LAB</text>
  </g>
</svg>
